<svg width="574" height="215" viewBox="0 0 574 215" fill="none" xmlns="http://www.w3.org/2000/svg">
<rect width="39" height="215" fill="#00445F"/>
<rect x="39" width="535" height="215" fill="#EBC785"/>
<path d="M121.319 151.373L94.7055 77.2524C94.1251 75.5942 93.3375 74.3091 92.3425 73.3971C91.4305 72.4022 90.1455 71.656 88.4873 71.1585L85.5025 70.1636V68.92H121.319V70.1636L117.464 71.2829C115.557 71.7804 114.479 72.6509 114.231 73.8945C114.065 75.1382 114.272 76.672 114.852 78.496L133.258 133.092L151.788 78.3716C152.452 76.4647 152.742 74.8894 152.659 73.6458C152.659 72.4022 151.705 71.5316 149.799 71.0342L146.565 70.1636V68.92H163.976V70.1636L160.618 71.1585C159.043 71.5731 157.924 72.3193 157.26 73.3971C156.597 74.392 155.975 75.7185 155.395 77.3767L130.522 151.373H121.319ZM172.834 152.865C168.025 152.865 163.963 151.497 160.646 148.761C157.413 146.025 155.796 142.087 155.796 136.947C155.796 133.05 157.786 129.485 161.766 126.252C165.745 122.935 172.005 120.448 180.545 118.79C181.871 118.541 183.363 118.292 185.022 118.044C186.68 117.712 188.421 117.38 190.245 117.049V107.224C190.245 101.586 189.54 97.648 188.131 95.4094C186.804 93.088 184.69 91.9273 181.788 91.9273C179.798 91.9273 178.223 92.5905 177.062 93.9171C175.902 95.1607 175.155 97.3578 174.824 100.508L174.575 101.876C174.409 105.441 173.539 108.053 171.963 109.711C170.388 111.369 168.44 112.199 166.118 112.199C163.963 112.199 162.18 111.535 160.771 110.209C159.361 108.882 158.657 107.1 158.657 104.861C158.657 101.462 159.817 98.6014 162.139 96.28C164.543 93.9585 167.694 92.2174 171.59 91.0567C175.487 89.896 179.715 89.3156 184.275 89.3156C191.654 89.3156 197.334 91.1396 201.313 94.7876C205.376 98.3527 207.407 104.198 207.407 112.323V139.807C207.407 143.538 209.148 145.404 212.63 145.404H215.366L216.486 146.399C214.91 148.388 213.169 149.922 211.262 151C209.438 152.078 206.827 152.617 203.427 152.617C199.779 152.617 196.878 151.788 194.722 150.129C192.649 148.388 191.281 146.108 190.618 143.289C188.131 145.943 185.561 148.223 182.907 150.129C180.337 151.953 176.979 152.865 172.834 152.865ZM180.42 145.279C182.078 145.279 183.612 144.906 185.022 144.16C186.514 143.331 188.255 142.087 190.245 140.429V119.536C189.416 119.702 188.587 119.868 187.758 120.033C186.929 120.199 185.975 120.365 184.897 120.531C181.083 121.526 178.016 123.225 175.694 125.63C173.456 127.951 172.337 131.102 172.337 135.081C172.337 138.481 173.124 141.051 174.699 142.792C176.275 144.45 178.182 145.279 180.42 145.279ZM219.418 151V149.756L220.91 149.259C223.895 148.264 225.387 146.191 225.387 143.041V76.5062C225.387 74.848 225.056 73.6044 224.392 72.7753C223.729 71.8633 222.568 71.2 220.91 70.7854L219.294 70.4124V69.1687L242.052 63.8211L243.544 64.9404L243.047 82.3513V124.884C243.047 127.951 243.047 131.019 243.047 134.087C243.13 137.071 243.171 140.056 243.171 143.041C243.171 144.699 243.503 146.067 244.166 147.145C244.83 148.14 245.949 148.886 247.524 149.383L249.141 149.756V151H219.418ZM271.572 152.865C266.763 152.865 262.701 151.497 259.384 148.761C256.151 146.025 254.534 142.087 254.534 136.947C254.534 133.05 256.524 129.485 260.504 126.252C264.483 122.935 270.743 120.448 279.282 118.79C280.609 118.541 282.101 118.292 283.76 118.044C285.418 117.712 287.159 117.38 288.983 117.049V107.224C288.983 101.586 288.278 97.648 286.869 95.4094C285.542 93.088 283.428 91.9273 280.526 91.9273C278.536 91.9273 276.961 92.5905 275.8 93.9171C274.64 95.1607 273.893 97.3578 273.562 100.508L273.313 101.876C273.147 105.441 272.277 108.053 270.701 109.711C269.126 111.369 267.178 112.199 264.856 112.199C262.701 112.199 260.918 111.535 259.509 110.209C258.099 108.882 257.394 107.1 257.394 104.861C257.394 101.462 258.555 98.6014 260.877 96.28C263.281 93.9585 266.432 92.2174 270.328 91.0567C274.225 89.896 278.453 89.3156 283.013 89.3156C290.392 89.3156 296.072 91.1396 300.051 94.7876C304.114 98.3527 306.145 104.198 306.145 112.323V139.807C306.145 143.538 307.886 145.404 311.368 145.404H314.104L315.224 146.399C313.648 148.388 311.907 149.922 310 151C308.176 152.078 305.565 152.617 302.165 152.617C298.517 152.617 295.616 151.788 293.46 150.129C291.387 148.388 290.019 146.108 289.356 143.289C286.869 145.943 284.298 148.223 281.645 150.129C279.075 151.953 275.717 152.865 271.572 152.865ZM279.158 145.279C280.816 145.279 282.35 144.906 283.76 144.16C285.252 143.331 286.993 142.087 288.983 140.429V119.536C288.154 119.702 287.325 119.868 286.496 120.033C285.666 120.199 284.713 120.365 283.635 120.531C279.821 121.526 276.754 123.225 274.432 125.63C272.194 127.951 271.074 131.102 271.074 135.081C271.074 138.481 271.862 141.051 273.437 142.792C275.013 144.45 276.92 145.279 279.158 145.279ZM317.54 151V149.756L319.281 149.259C322.183 148.43 323.634 146.399 323.634 143.165V104.239C323.634 102.415 323.343 101.089 322.763 100.26C322.183 99.3476 321.063 98.7258 319.405 98.3942L317.54 97.8967V96.6531L338.806 89.44L340.05 90.6836L341.045 98.1455C343.946 95.5753 347.221 93.4611 350.869 91.8029C354.517 90.1447 358.124 89.3156 361.689 89.3156C367.161 89.3156 371.348 90.808 374.25 93.7927C377.234 96.7775 378.727 101.337 378.727 107.473V143.289C378.727 146.523 380.302 148.554 383.453 149.383L384.572 149.756V151H355.222V149.756L356.839 149.259C359.741 148.347 361.191 146.316 361.191 143.165V103.493C361.191 98.1869 358.538 95.5338 353.232 95.5338C349.584 95.5338 345.605 97.3578 341.293 101.006V143.289C341.293 146.523 342.744 148.554 345.646 149.383L346.765 149.756V151H317.54ZM412.459 152.865C407.153 152.865 403.008 151.539 400.023 148.886C397.121 146.233 395.67 142.004 395.67 136.201V93.6684H387.089V92.4247L390.074 91.9273C392.644 91.3469 394.841 90.5178 396.665 89.44C398.572 88.3622 400.438 86.9113 402.262 85.0873L412.459 73.7702H413.703L413.33 91.1811H427.259V93.6684H413.206V138.439C413.206 141.341 413.827 143.538 415.071 145.031C416.398 146.523 418.056 147.269 420.046 147.269C421.787 147.269 423.321 146.855 424.647 146.025C425.974 145.113 427.3 143.911 428.627 142.419L429.87 143.663C428.212 146.481 425.932 148.72 423.03 150.378C420.129 152.036 416.605 152.865 412.459 152.865ZM448.69 82.8487C445.871 82.8487 443.467 81.9782 441.477 80.2371C439.57 78.4131 438.617 76.1331 438.617 73.3971C438.617 70.5782 439.57 68.2982 441.477 66.5571C443.467 64.816 445.871 63.9454 448.69 63.9454C451.509 63.9454 453.872 64.816 455.779 66.5571C457.686 68.2982 458.639 70.5782 458.639 73.3971C458.639 76.1331 457.686 78.4131 455.779 80.2371C453.872 81.9782 451.509 82.8487 448.69 82.8487ZM434.015 151V149.756L435.756 149.259C437.414 148.761 438.534 148.015 439.114 147.02C439.777 146.025 440.109 144.699 440.109 143.041V104.115C440.109 102.374 439.777 101.089 439.114 100.26C438.534 99.3476 437.414 98.7258 435.756 98.3942L434.015 98.0211V96.7775L456.774 89.44L458.017 90.6836L457.644 108.343V143.165C457.644 144.823 457.934 146.15 458.515 147.145C459.178 148.14 460.297 148.886 461.873 149.383L463.116 149.756V151H434.015ZM499.464 152.865C493.827 152.865 488.686 151.663 484.043 149.259C479.483 146.772 475.835 143.207 473.099 138.564C470.446 133.838 469.12 128.076 469.12 121.277C469.12 114.561 470.571 108.841 473.472 104.115C476.457 99.3062 480.395 95.6582 485.287 93.1709C490.261 90.6007 495.692 89.3156 501.579 89.3156C506.387 89.3156 510.45 90.1033 513.766 91.6785C517.083 93.2538 519.611 95.3265 521.352 97.8967C523.094 100.384 523.964 102.996 523.964 105.732C523.964 108.053 523.259 109.877 521.85 111.204C520.44 112.447 518.616 113.069 516.378 113.069C513.973 113.069 512.025 112.199 510.533 110.457C509.04 108.716 508.17 106.436 507.921 103.617C507.838 101.793 507.88 100.26 508.045 99.016C508.211 97.6895 508.211 96.3629 508.045 95.0364C507.714 93.6269 507.175 92.7149 506.429 92.3004C505.765 91.8029 504.812 91.5542 503.568 91.5542C498.511 91.5542 494.573 93.7513 491.754 98.1455C489.018 102.54 487.65 109.545 487.65 119.163C487.65 127.537 489.184 133.962 492.251 138.439C495.402 142.833 500.211 145.031 506.677 145.031C510.574 145.031 513.725 144.326 516.129 142.916C518.533 141.507 520.855 139.393 523.094 136.574L524.337 137.569C522.264 142.46 519.072 146.233 514.761 148.886C510.45 151.539 505.351 152.865 499.464 152.865Z" fill="#00445F"/>
</svg>
