<svg width="28" height="28" viewBox="0 0 28 28" fill="none" xmlns="http://www.w3.org/2000/svg">
<path d="M7.72705 0C7.97992 0 8.22243 0.100453 8.40124 0.27926C8.58005 0.458066 8.6805 0.700581 8.6805 0.953452V2.73641H18.9192V0.96571C18.9192 0.712839 19.0197 0.470325 19.1985 0.291518C19.3773 0.112711 19.6198 0.0122587 19.8727 0.0122587C20.1255 0.0122587 20.368 0.112711 20.5469 0.291518C20.7257 0.470325 20.8261 0.712839 20.8261 0.96571V2.73641H24.5173C25.2396 2.73641 25.9323 3.02323 26.4431 3.53381C26.954 4.04439 27.2411 4.73694 27.2415 5.45919V24.5187C27.2411 25.2409 26.954 25.9335 26.4431 26.4441C25.9323 26.9547 25.2396 27.2415 24.5173 27.2415H2.72415C2.00189 27.2415 1.3092 26.9547 0.798366 26.4441C0.287528 25.9335 0.000361127 25.2409 0 24.5187L0 5.45919C0.000361127 4.73694 0.287528 4.04439 0.798366 3.53381C1.3092 3.02323 2.00189 2.73641 2.72415 2.73641H6.77359V0.95209C6.77396 0.699455 6.87457 0.45729 7.05333 0.278778C7.2321 0.100265 7.47441 -2.57791e-07 7.72705 0ZM1.9069 10.5452V24.5187C1.9069 24.626 1.92804 24.7323 1.96911 24.8314C2.01018 24.9306 2.07038 25.0207 2.14627 25.0966C2.22216 25.1725 2.31225 25.2327 2.4114 25.2737C2.51055 25.3148 2.61683 25.3359 2.72415 25.3359H24.5173C24.6247 25.3359 24.7309 25.3148 24.8301 25.2737C24.9292 25.2327 25.0193 25.1725 25.0952 25.0966C25.1711 25.0207 25.2313 24.9306 25.2724 24.8314C25.3134 24.7323 25.3346 24.626 25.3346 24.5187V10.5642L1.9069 10.5452ZM9.08095 19.9122V22.1814H6.81037V19.9122H9.08095ZM14.7553 19.9122V22.1814H12.4861V19.9122H14.7553ZM20.4311 19.9122V22.1814H18.1605V19.9122H20.4311ZM9.08095 14.4952V16.7644H6.81037V14.4952H9.08095ZM14.7553 14.4952V16.7644H12.4861V14.4952H14.7553ZM20.4311 14.4952V16.7644H18.1605V14.4952H20.4311ZM6.77359 4.64195H2.72415C2.61683 4.64195 2.51055 4.66309 2.4114 4.70416C2.31225 4.74523 2.22216 4.80543 2.14627 4.88131C2.07038 4.9572 2.01018 5.04729 1.96911 5.14645C1.92804 5.2456 1.9069 5.35187 1.9069 5.45919V8.63964L25.3346 8.6587V5.45919C25.3346 5.35187 25.3134 5.2456 25.2724 5.14645C25.2313 5.04729 25.1711 4.9572 25.0952 4.88131C25.0193 4.80543 24.9292 4.74523 24.8301 4.70416C24.7309 4.66309 24.6247 4.64195 24.5173 4.64195H20.8261V5.90731C20.8261 6.16019 20.7257 6.4027 20.5469 6.58151C20.368 6.76031 20.1255 6.86077 19.8727 6.86077C19.6198 6.86077 19.3773 6.76031 19.1985 6.58151C19.0197 6.4027 18.9192 6.16019 18.9192 5.90731V4.64195H8.6805V5.89506C8.6805 6.14793 8.58005 6.39044 8.40124 6.56925C8.22243 6.74806 7.97992 6.84851 7.72705 6.84851C7.47417 6.84851 7.23166 6.74806 7.05285 6.56925C6.87405 6.39044 6.77359 6.14793 6.77359 5.89506V4.64195Z" fill="#FCFCFC"/>
</svg>
